<svg enable-background="new 0 0 76.00 76.00" height="76" viewBox="0 0 76 76" width="76" xmlns="http://www.w3.org/2000/svg"><path d="m31 19h14v19h12v19h-38v-25h12zm-.419 27.0561v-2.2092h-4.227v-.0347l1.0448-.8668c.8348-.7209 1.5308-1.4765 2.0879-2.2668s.8465-1.6585.868-2.6048c-.0037-1.026-.3372-1.8564-1.0005-2.4914-.6633-.6349-1.6343-.9618-2.9131-.9806-.7644.0082-1.4646.119-2.1006.3327-.6359.2136-1.1663.4812-1.5911.8029l.7487 1.8509 1.0666-.6219c.4122-.1867.8635-.2856 1.354-.2968.6483.0112 1.1192.1708 1.4126.4789.2935.308.4379.6974.4332 1.168-.0065.6378-.3156 1.3255-.9273 2.0631-.6116.7375-1.5389 1.6506-2.7818 2.7392l-1.4454 1.3113v1.626zm6.7-12.9003h2.5598v-11.2965h-2.1767l-3.0126 1.3903.4353 1.9813 2.1593-1.0254h.0349zm9.5753 18.8154c.3381.2057.7981.3845 1.38.5363s1.2422.2315 1.9808.2391c1.4179-.0189 2.515-.343 3.2911-.9722.7762-.6292 1.1694-1.4503 1.1798-2.4632-.0164-.7603-.2418-1.3815-.6763-1.8636-.4344-.4821-.9795-.7872-1.6352-.9151v-.0348c.6537-.2396 1.1443-.5842 1.4718-1.0337s.4913-.9735.4914-1.5719c-.0048-.7867-.3189-1.4433-.9422-1.9698s-1.5267-.8-2.7102-.8205c-.7509.0083-1.4344.0952-2.0504.2607s-1.0993.3601-1.4497.5837l.5398 1.8943.9991-.4387c.4278-.144.8783-.2215 1.3518-.2322.5648.0068.9849.1179 1.2603.3333.2753.2154.4125.4942.4114.8363-.028.4676-.2507.8008-.6683.9997s-.8623.2956-1.3343.2902h-1.0448v1.8937h1.0796c.6222-.0026 1.1584.1297 1.6086.3967s.686.6842.7074 1.2515c-.0003.431-.1738.7875-.5202 1.0695-.3465.282-.8638.4281-1.552.4383-.5525-.0128-1.067-.0968-1.5433-.252l-1.0862-.4493z" stroke-linejoin="round" stroke-width=".2"/></svg>