<svg height="128" width="128" xmlns="http://www.w3.org/2000/svg" xmlns:xlink="http://www.w3.org/1999/xlink"><linearGradient id="a" gradientTransform="matrix(4.5119166 0 0 4.5076094 -32.931193 -42.508098)" gradientUnits="userSpaceOnUse" x1="24.623699" x2="24.623699" y1="9.873991" y2="36.147404"><stop offset="0" stop-color="#fff"/><stop offset=".33380178" stop-color="#fff" stop-opacity=".235294"/><stop offset=".67927718" stop-color="#fff" stop-opacity=".156863"/><stop offset="1" stop-color="#fff" stop-opacity=".392157"/></linearGradient><linearGradient id="b" gradientUnits="userSpaceOnUse" x1="38.78992093574" x2="48.51866151383" y1="51.12096062147" y2="82.22277731613"><stop offset="0" stop-color="#fff" stop-opacity=".27451"/><stop offset="1" stop-color="#fff" stop-opacity="0"/></linearGradient><radialGradient id="c" cx="62.625" cy="4.625" gradientTransform="matrix(5.8353035 0 0 2.2588271 -301.4358 93.55283)" gradientUnits="userSpaceOnUse" r="10.625"><stop offset="0"/><stop offset="1" stop-opacity="0"/></radialGradient><linearGradient id="d" gradientUnits="userSpaceOnUse" x1="64.991737" x2="64.991737" y1="2.028602" y2="120.24574"><stop offset="0" stop-color="#ffe16b"/><stop offset="1" stop-color="#f9c440"/></linearGradient><path d="m126.0002 103.99992c0 13.25487-27.758393 24.00007-62.000096 24.00007-34.241708 0-62.0001008-10.7452-62.0001008-24.00007 0-13.254874 27.7583928-24.00007 62.0001008-24.00007 34.241703 0 62.000096 10.745196 62.000096 24.00007z" fill="url(#c)" fill-rule="evenodd" opacity=".3"/><path d="m64.000004 2.496136c4.150927 0 17.533435 33.396907 20.891609 35.834435 3.358169 2.437523 39.286277 4.832685 40.568997 8.776685 1.2827 3.944-26.374571 26.979577-27.657276 30.923576-1.282709 3.943999 7.539576 38.821188 4.181416 41.258718-3.358181 2.43753-33.833819-16.7226-37.984752-16.7226-4.150925 0-34.626565 19.16013-37.984741 16.7226-3.35817-2.43753 5.464122-37.314721 4.181417-41.258718-1.282705-3.943999-28.9399836-26.979582-27.6572762-30.923582 1.2827077-3.943994 37.2108272-6.339156 40.5690002-8.776679 3.358169-2.437528 16.740681-35.834435 20.891606-35.834435z" fill="url(#d)" stroke="#ad5f00" stroke-linejoin="round" stroke-opacity=".498039" stroke-width=".992271"/><path d="m64.062602 3.3746234c-.003-.0000142-.05958.062406-.0625.0625-.003.0000942-.05958-.0002026-.0625 0-.003.0002026-.0596-.0003106-.0625 0a.83859082.83859082 0 0 0 -.125 0c-.0036.0008266-.059-.0009884-.0625 0-.0034.0009884-.12156.061352-.125.0625-.0034.00115-.05912-.00131-.0625 0-.0032.00106-.0594.06131-.0625.0625-.0032.00119-.12194-.00132-.125 0-.003.00132-.0595.061052-.0625.0625-.003.00145-.05956-.00157-.0625 0-.003.00157-.05964.060804-.0625.0625-.0028.0017-.0597.060684-.0625.0625-.0028.00182-.05978-.00193-.0625 0-.0028.00193-.05986.060456-.0625.0625-.0026.00204-.05996.060346-.0625.0625-.0026.00216-.06006.06024-.0625.0625-.0024.00226-.06016.06014-.0625.0625-.0024.00236-.06026.060042-.0625.0625-.0022.00246-.06036.05995-.0625.0625-.0022.00256-.06046.059862-.0625.0625-.002.00264-.06058.059778-.0625.0625-.0019.00272.0018.0597 0 .0625-.045022.0651736-9.744034 14.1315466-18.625032 34.7500566-12.773112 2.06024-29.596953 4.343421-39.1875625 7.250012-.00436.0014-.1207382.06086-.1250002.0625-.00426.0016-.05834.0606-.0625.0625s-.1209562-.0022-.1250002 0c-.00404.0022-.1210862.06014-.1250002.0625-.00392.0024-.05873.05992-.0625.0625-.00378.0026-.058886.0597-.0625.0625-.00362.0028-.1215542.0595-.1250002.0625-.00344.003-.059232.0593-.0625.0625-.00326.0032-.059424.12162-.0625.125-.00308.0034-.1221242.05894-.1250002.0625-.00288.0036-.059834.12128-.0625.125-.00266.0038-.060054.05864-.0625.0625-.00244.0038-.060282.121001-.0625.125001-.00222.004.00198.05838 0 .0625-.00198.0042-.060758.12078-.0625.125-.00174.0042-.061006.05818-.0625.0625-.00149.0044.00124.1206 0 .125s-.061514.12054-.0625.125c-.0009856.0044.0007256.120481 0 .125001-.0007256.0046.0004632.05796 0 .0625-.0004632.0046.0001994.12044 0 .125-.0001994.0046-.0000652.12042 0 .125.0000652.0046-.0003298.12044 0 .125.0003298.0046-.000593.05796 0 .0625.000593.0046-.0008544.120521 0 .125001.0008544.0044.061388.12056.0625.125.00111.0044-.00137.12064 0 .125.00137.0044.060882.05822.0625.0625.00162.0042-.00186.12082 0 .125.00186.0042.0604.05844.0625.0625.0021.004.060168.121081.0625.125001.00234.004.059944.12122.0625.125 6.9579715 9.129002 15.7846105 16.886631 23.4375375 24.750039.0032.0034.121521.121821.125001.125001.0034.0032.05884.05954.0625.0625.0036.003.12116.05976.125.0625.0038.0028.05852.06.0625.0625.004.0026.12088.06024.125.0625.0042.0022.05824.0605.0625.0625.0042.002.12062-.0018.125001 0 .0044.0018.12054.061.125.0625.0044.0015.05796.06128.0625.0625.0046.0012.12038-.000946.125 0 .0046.000946.12034-.00067.125 0 .0046.00067.1203.06212.125.0625.0046.00039.120301-.00011.125001 0 .0048.00011.0578.000172.0625 0 .0048-.000172.12032-.06204.125-.0625.0046-.000452.12034.00073.125 0l84.750133-15.250023a.83859082.83859082 0 0 0 .0625 0c.003-.000604.0596.000716.0625 0 .003-.000716.0596.000826.0625 0 .003-.000826.0597-.06156.0625-.0625.003-.000934.0597.001.0625 0 .003-.001.0597-.06136.0625-.0625.003-.0011.0598.0013.0625 0 .003-.0013.0598-.06114.0625-.0625.003-.0014.0599.0015.0625 0 .003-.0015.0599-.06094.0625-.0625.003-.0016.06.0017.0625 0 .003-.0017.0601-.06076.0625-.0625.002-.0017.0601-.06066.0625-.0625.002-.0018.0602.0019.0625 0 .002-.0019.0603-.0605.0625-.0625.002-.002.0604-.0604.0625-.0625.001-.001-.0122-.0501 0-.0625h.0625c2.71463-2.720396 9.25002-9.187515 9.25002-9.187515.002-.0018.0607-.06066.0625-.0625.002-.0018.0607-.0606.0625-.0625.002-.002.0609-.0605.0625-.0625.002-.002.0609-.06044.0625-.0625.002-.002-.002-.06038 0-.0625.001-.0022.0611-.06034.0625-.0625.001-.0022.0612-.06026.0625-.0625.001-.0022-.001-.0602 0-.0625.001-.0022.0614-.06018.0625-.0625.001-.0024-.001-.06014 0-.0625.001-.0024.0615-.0601.0625-.0625.00097-.0024-.0009-.06008 0-.0625.0009-.0024-.00082-.06004 0-.0625.00082-.0024.0618-.06002.0625-.0625.00073-.0024-.00065-.06 0-.0625.00065-.0026-.00057-.05998 0-.0625.00057-.0026-.00049-.05996 0-.0625.00049-.0026-.0004-.05994 0-.0625.0004-.0026.0622-.05994.0625-.0625.00032-.0026-.00024-.05992 0-.0625.00024-.0026-.00015-.05992 0-.0625.00015-.0026-.00007-.05992 0-.0625.00007-.0026.00002-.05992 0-.0625-.00002-.0026.0001-.05992 0-.0625-.0001-.0026.00019-.05992 0-.0625-.00019-.0026.00027-.05992 0-.0625-.00027-.0026-.0621-.05994-.0625-.0625-.00036-.0026.00044-.05996 0-.0625-.00044-.0026.00052-.05996 0-.0625-.00052-.0026.00061-.05998 0-.0625-.00061-.0026.00069-.06 0-.0625-.00069-.0024-.0617-.06002-.0625-.0625-.00077-.0024.00085-.06006 0-.0625-.00085-.0024.00093-.06008 0-.0625-.00093-.0024-.0615.0024-.0625 0s.001-.06016 0-.0625c-.001-.0024.001-.06018 0-.0625-.001-.0024-.0613-.06022-.0625-.0625-.001-.0022.001-.06028 0-.0625-.001-.0022-.0611-.06032-.0625-.0625-.001-.0022-.061-.06036-.0625-.0625-.001-.0022.002-.0604 0-.0625-.002-.002-.0609.002-.0625 0-.002-.002.002-.06052 0-.0625-.002-.002-.0608-.06056-.0625-.0625-.002-.0019-.0607-.06062-.0625-.0625-.002-.0018-.0606-.06074-.0625-.0625-.002-.0018-.0605-.06082-.0625-.0625-.002-.0017-.0605.0016-.0625 0s.002-.06094 0-.0625c-.002-.0016-.0604-.06102-.0625-.0625-.002-.0015-.0603.0014-.0625 0-.002-.0014-.0603-.06116-.0625-.0625-.002-.0013-.0602.0013-.0625 0-.002-.0013-.0602-.0613-.0625-.0625-.002-.0012-.0602.0011-.0625 0-.002-.001-.0601-.06154-.0625-.0625-.002-.000966-.0601.000888-.0625 0-.002-.000888-.06-.0617-.0625-.0625-.002-.000808-.06.000726-.0625 0-12.19722-3.485375-26.382775-5.161456-39.000065-7.187517-6.850809-15.593323-18.301662-34.5662697-18.37503-34.6875559-.0014-.00258-.06102-.059972-.0625-.0625-.0015-.00252.0016-.06003 0-.0625-.0016-.00248-.06084-.060088-.0625-.0625-.0017-.00242-.06076-.060152-.0625-.0625-.0017-.00234.0018-.060218 0-.0625-.0018-.00228-.06059-.060288-.0625-.0625-.0019-.00221-.06051-.06036-.0625-.0625-.002-.00214-.06043-.060436-.0625-.0625-.0021-.00199-.06028-.060595-.0625-.0625-.0022-.00191-.06021-.060678-.0625-.0625-.0022-.00182-.06014-.060764-.0625-.0625-.0024-.00174-.06008.00165-.0625 0-.0024-.00165-.06002-.060944-.0625-.0625-.0024-.00156-.05996.00146-.0625 0-.0026-.00146-.05992-.061132-.0625-.0625-.0026-.00137-.05986.00127-.0625 0-.0026-.00127-.05982-.061326-.0625-.0625-.0026-.00117-.05978.00107-.0625 0-.0028-.00107-.05974-.061528-.0625-.0625-.0028-.0009716-.0597.0008686-.0625 0s-.05968.0007646-.0625 0c-.0028-.0007646-.05966-.06184-.0625-.0625-.0028-.0006594-.05962.0005532-.0625 0-.0028-.0005532-.1221.0004464-.125 0-.0028-.0004464-.0596.0003388-.0625 0-.003-.0003388-.05958.000231-.0625 0-.003-.000231-.05958.0001226-.0625 0-.003-.0001226-.05958-.062486-.0625-.0625z" fill="url(#b)" opacity=".8"/><path d="m64.007129 3.461612c.0609 0-.07648-.0208-.3125.15625-.236015.177047-.550684.513572-.90625.9375-.711133.847856-1.567931 2.126027-2.5 3.6875-1.864139 3.122946-4.046815 7.365994-6.1875 11.6875s-4.259216 8.724375-6.0625 12.21875c-.901642 1.747188-1.721014 3.256716-2.4375 4.4375s-1.220177 2.010581-1.9375 2.53125c-.717224.520596-1.655128.746805-3 1.0625s-3.027814.621024-4.96875.9375c-3.881871.632953-8.727042 1.302256-13.5 2s-9.484053 1.444421-13.0312497 2.25c-1.7735983.40279-3.2548404.805221-4.28125 1.21875-.5132048.206765-.9149252.424277-1.15625.59375s-.3002755.277248-.28125.21875c.019029-.05851-.00172.09653.09375.375.095474.278468.2689299.65667.5625 1.125.5871401.936661 1.5518273 2.164725 2.75 3.53125 2.3963453 2.73305 5.7670037 6.103622 9.2187497 9.46875s6.981201 6.709982 9.75 9.5c1.384399 1.395009 2.597449 2.64276 3.5 3.6875s1.507042 1.813129 1.78125 2.65625c.2742.843096.20917 1.780841.09375 3.15625s-.35715 3.089424-.65625 5.03125c-.5982 3.883652-1.469003 8.687378-2.28125 13.4375-.812247 4.750118-1.544605 9.443728-1.875 13.062498-.165197 1.80939-.232405 3.36609-.15625 4.46875.03808.55133.10088.99985.1875 1.28125.08662.28141.205675.34838.15625.3125-.0495-.0359.04854.0359.34375.0312.29521-.005.744136-.0533 1.28125-.1875 1.074228-.26829 2.546059-.81544 4.21875-1.53125 3.345382-1.43162 7.569604-3.57373 11.84375-5.8125 4.274146-2.23876 8.579186-4.57595 12.09375-6.34375 1.757282-.8839 3.319509-1.62182 4.59375-2.15625s2.176256-.90625 3.0625-.90625 1.789072.37179 3.0625.90625 2.83792 1.27234 4.59375 2.15625c3.51166 1.76782 7.792262 4.10499 12.0625 6.34375 4.270238 2.23877 8.532586 4.38091 11.875 5.8125 1.671207.7158 3.114197 1.26299 4.1875 1.53125.536651.13413.986331.18288 1.281251.1875.29492.005.3931-.0671.34375-.0312-.0494.0359.0696-.0311.15625-.3125.0866-.2814.14942-.72992.1875-1.28125.0761-1.10266.009-2.65936-.15625-4.46875-.3304-3.61877-1.06275-8.31238-1.875001-13.062498-.812246-4.750122-1.683051-9.553847-2.28125-13.4375-.2991-1.941826-.540831-3.655841-.65625-5.03125s-.180451-2.313154.09375-3.15625c.274384-.843663.877811-1.611499 1.78125-2.65625s2.114131-2.292489 3.500001-3.6875c2.77175-2.790021 6.29435-6.134863 9.75-9.5s6.85074-6.735669 9.25-9.46875c1.19963-1.366541 2.16206-2.594568 2.75-3.53125.29397-.468341.46687-.846568.5625-1.125.0956-.278432.0746-.433781.0937-.375.0191.05877-.0397-.04924-.28125-.21875-.24154-.169506-.6426-.386966-1.15625-.59375-1.02729-.413567-2.50617-.815951-4.28125-1.21875-3.55016-.805597-8.25438-1.552254-13.03125-2.25s-9.615211-1.367052-13.500001-2c-1.942395-.316474-3.654282-.621813-5-.9375s-2.282491-.541697-3-1.0625c-.717609-.520876-1.221852-1.350398-1.9375-2.53125s-1.53732-2.69029-2.4375-4.4375c-1.800361-3.49442-3.925716-7.897244-6.0625-12.21875s-4.29503-8.564609-6.15625-11.6875c-.93061-1.561446-1.789737-2.83974-2.5-3.6875-.355132-.42388-.670522-.760545-.90625-.9375s-.373399-.15625-.3125-.15625z" fill="none" opacity=".8" stroke="url(#a)" stroke-linejoin="round" stroke-width=".992271"/></svg>